<?xml version="1.0" encoding="utf-8"?>
<svg version="1.1" xmlns="http://www.w3.org/2000/svg" viewBox="0 0 204.7 206.9">
  <circle fill="#BE1E2D" cx="107.4" cy="106.3" r="20.8"/>
  <polygon fill="#BE1E2D" points="198.1,32.9 108.9,95.7 120.3,109.3"/>
  <path fill="#ffffff" d="M165.6,24.1c-4.3-2.9-8.9-5.5-13.7-7.6c-2.1-1.1-4.2-2-6.5-3C133.3,8.5,120,6,105.3,6c-14.6,0-28,2.5-40,7.5
    c-12,5-22.4,12-31,21c-8.6,9-15.3,19.8-20,32.2c-4.7,12.5-7.1,26.1-7.1,41.1c0,14.9,2.4,28.6,7.1,41.1c4.7,12.5,11.4,23.2,20,32.2
    c7.9,8.2,17.3,14.8,28,19.6c-26.4-12.1-44.8-39.5-44.8-71.4c0-43.1,33.7-78.1,75.3-78.1c10.5,0,20.5,2.3,29.5,6.3
    c4.4,2,8.5,4.4,12.4,7.2l0,0l41.7-32C173.2,29.6,169.5,26.7,165.6,24.1z"/>
</svg>
