<?xml version="1.0" encoding="UTF-8"?>
<svg id="Layer_2" xmlns="http://www.w3.org/2000/svg" version="1.1" viewBox="0 0 792 612">
  <!-- Generator: Adobe Illustrator 30.3.0, SVG Export Plug-In . SVG Version: 2.1.3 Build 182)  -->
  <defs>
    <style>
      .st0 {
        fill: #fff;
      }
    </style>
  </defs>
  <g>
    <g>
      <polygon class="st0" points="225.08 196.74 224.35 191.89 172.62 191.89 172.62 196.74 225.08 196.74"/>
      <path class="st0" d="M237.37,237.58s.58-4.7.58-4.7h57.11v4.7h-57.69Z"/>
      <path class="st0" d="M238.69,227.41l.58-4.68h55.78v4.68h-56.36Z"/>
      <path class="st0" d="M295.06,196.74v-4.85h-51.73l-.64,4.85h52.37Z"/>
      <path class="st0" d="M295.06,206.87v-4.65h-53.09l-.59,4.65h53.68Z"/>
      <path class="st0" d="M295.06,217.23v-4.65h-54.44s-.56,4.65-.56,4.65h55.01Z"/>
      <rect class="st0" x="260.57" y="335.35" width="34.49" height="4.5"/>
      <rect class="st0" x="260.57" y="325.18" width="34.49" height="4.49"/>
      <path class="st0" d="M260.57,319.5v-4.66h34.49v4.66h-34.49Z"/>
      <path class="st0" d="M260.57,309v-4.34h34.49v4.34h-34.49Z"/>
      <path class="st0" d="M260.57,298.82v-4.33h34.49v4.33h-34.49Z"/>
      <path class="st0" d="M260.57,288.65v-4.53h34.49v4.53h-34.49Z"/>
      <path class="st0" d="M260.57,278.3v-4.5h34.49v4.5h-34.49Z"/>
      <path class="st0" d="M260.57,268.12v-4.34h34.49v4.34h-34.49Z"/>
      <path class="st0" d="M260.57,257.98v-4.53h34.49v4.53h-34.49Z"/>
      <path class="st0" d="M257.12,247.6h-21.06c.3-2.32.54-4.3.54-4.3,0,0,20.91,0,20.91,0h8.27s29.27,0,29.27,0v4.3h-37.94Z"/>
      <polygon class="st0" points="247.41 335.35 246.77 339.85 221.94 339.85 221.29 335.35 247.41 335.35"/>
      <polygon class="st0" points="219.81 325.18 220.44 329.67 248.24 329.67 248.85 325.18 219.81 325.18"/>
      <polygon class="st0" points="218.31 314.84 218.95 319.5 249.68 319.5 250.31 314.84 218.31 314.84"/>
      <polygon class="st0" points="216.83 304.66 217.45 309 251.15 309 251.76 304.66 216.83 304.66"/>
      <polygon class="st0" points="215.35 294.49 215.97 298.82 252.59 298.82 253.21 294.49 215.35 294.49"/>
      <polygon class="st0" points="213.84 284.12 214.5 288.65 254.04 288.65 254.67 284.12 213.84 284.12"/>
      <path class="st0" d="M212.36,273.8s.62,4.5.62,4.5h42.51c.18-1.3.39-2.93.61-4.5h-43.75Z"/>
      <path class="st0" d="M210.88,263.78l.63,4.34h45.44c.2-1.42.41-2.88.61-4.34h-46.68Z"/>
      <path class="st0" d="M209.38,253.45l.66,4.53h48.35c.22-1.55.43-3.1.64-4.53h-23.76c-.32,2.42-.56,4.53-.56,4.53l-.67-4.53h-24.64Z"/>
      <rect class="st0" x="172.62" y="253.45" width="35.18" height="4.53"/>
      <polygon class="st0" points="207.8 335.35 207.8 339.85 207.8 339.85 172.62 339.85 172.62 335.35 207.8 335.35"/>
      <rect class="st0" x="172.62" y="325.18" width="35.18" height="4.49"/>
      <rect class="st0" x="172.62" y="314.84" width="35.18" height="4.66"/>
      <rect class="st0" x="172.62" y="304.66" width="35.18" height="4.34"/>
      <rect class="st0" x="172.62" y="294.49" width="35.18" height="4.33"/>
      <rect class="st0" x="172.62" y="284.12" width="35.18" height="4.53"/>
      <rect class="st0" x="172.62" y="273.8" width="35.18" height="4.5"/>
      <rect class="st0" x="172.62" y="263.78" width="35.18" height="4.34"/>
      <path class="st0" d="M201.12,247.6h-28.5v-4.3s28.49,0,28.49,0h10.09s21.22,0,21.22,0c.25,1.57.47,3.02.67,4.3h-31.99Z"/>
      <path class="st0" d="M172.62,237.58v-4.7h58.17c.24,1.53.48,3.24.71,4.7h-58.88Z"/>
      <path class="st0" d="M172.62,227.41v-4.68h56.57c.23,1.48.47,3.17.71,4.68h-57.28Z"/>
      <path class="st0" d="M172.62,217.23v-4.65h54.98c.21,1.36.44,3.14.68,4.65h-55.66Z"/>
      <path class="st0" d="M172.62,206.87v-4.65h53.35s.28,1.77.73,4.65h-54.08Z"/>
    </g>
    <g>
      <path class="st0" d="M537.92,196.55v-4.66h40.09v4.66h-40.09Z"/>
      <path class="st0" d="M537.92,206.78v-4.66h40.09s0,1.95,0,4.66h-40.09Z"/>
      <path class="st0" d="M537.92,217.02v-4.66h40.09s0,1.95,0,4.66h-40.09Z"/>
      <path class="st0" d="M537.92,227.25v-4.66h40.09s0,1.95,0,4.66h-40.09Z"/>
      <path class="st0" d="M537.92,237.49v-4.66h40.09s0,1.95,0,4.66h-40.09Z"/>
      <path class="st0" d="M537.92,247.72v-4.66h40.09v4.66h-40.09Z"/>
      <path class="st0" d="M537.92,257.96v-4.66h40.09v4.66h-40.09Z"/>
      <path class="st0" d="M537.92,268.2v-4.66h40.09v4.66h-40.09Z"/>
      <path class="st0" d="M537.92,278.43v-4.66h40.09s0,1.95,0,4.66h-40.09Z"/>
      <path class="st0" d="M537.92,288.67v-4.66h40.09s0,1.95,0,4.66h-40.09Z"/>
      <path class="st0" d="M537.92,298.9v-4.66h40.09s0,1.95,0,4.66h-40.09Z"/>
      <path class="st0" d="M537.92,309.14v-4.66h40.09s0,1.95,0,4.66h-40.09Z"/>
      <path class="st0" d="M585.17,196.55v-4.66h40.09v4.66h-40.09Z"/>
      <path class="st0" d="M585.17,206.78v-4.66h40.09s0,1.95,0,4.66h-40.09Z"/>
      <path class="st0" d="M585.17,217.02v-4.66h40.09s0,1.95,0,4.66h-40.09Z"/>
      <path class="st0" d="M585.17,227.25v-4.66h40.09s0,1.95,0,4.66h-40.09Z"/>
      <path class="st0" d="M585.17,237.49v-4.66h40.09s0,1.95,0,4.66h-40.09Z"/>
      <path class="st0" d="M585.17,247.72v-4.66h40.09v4.66h-40.09Z"/>
      <path class="st0" d="M585.17,257.96v-4.66h40.09v4.66h-40.09Z"/>
      <path class="st0" d="M585.17,268.2v-4.66h40.09v4.66h-40.09Z"/>
      <path class="st0" d="M585.17,278.43v-4.66h40.09s0,1.95,0,4.66h-40.09Z"/>
      <path class="st0" d="M585.17,288.67v-4.66h40.09s0,1.95,0,4.66h-40.09Z"/>
      <path class="st0" d="M585.17,298.9v-4.66h40.09s0,1.95,0,4.66h-40.09Z"/>
      <path class="st0" d="M585.17,309.14v-4.66h40.09s0,1.95,0,4.66h-40.09Z"/>
      <path class="st0" d="M537.92,319.37v-4.66h87.34v4.66h-87.34Z"/>
      <polygon class="st0" points="590.95 329.61 620.95 329.61 625.26 324.96 590.95 324.96 572.24 324.96 537.92 324.96 542.23 329.61 572.24 329.61 590.95 329.61"/>
      <polygon class="st0" points="583.74 339.85 613.74 339.85 618.05 335.19 583.74 335.19 578.62 335.19 544.3 335.19 548.61 339.85 578.62 339.85 583.74 339.85"/>
    </g>
    <g>
      <path class="st0" d="M718.47,335.19v4.66h-38v-4.66h38Z"/>
      <path class="st0" d="M718.47,324.96v4.66h-38s0-1.95,0-4.66h38Z"/>
      <path class="st0" d="M718.47,314.72v4.66h-38s0-1.95,0-4.66h38Z"/>
      <path class="st0" d="M718.47,304.48v4.66h-38v-4.66h38Z"/>
      <path class="st0" d="M718.47,294.25v4.66h-38s0-1.95,0-4.66h38Z"/>
      <path class="st0" d="M718.47,284.01v4.66h-38v-4.66h38Z"/>
      <path class="st0" d="M718.47,243.07v4.66h-38s0-1.95,0-4.66h38Z"/>
      <path class="st0" d="M718.47,232.83v4.66h-38s0-1.95,0-4.66h38Z"/>
      <path class="st0" d="M718.47,222.6v4.66h-38s0-1.95,0-4.66h38Z"/>
      <path class="st0" d="M673.69,335.19v4.66h-38v-4.66h38Z"/>
      <path class="st0" d="M673.69,324.96v4.66h-38s0-1.95,0-4.66h38Z"/>
      <path class="st0" d="M673.69,314.72v4.66h-38s0-1.95,0-4.66h38Z"/>
      <path class="st0" d="M673.69,304.48v4.66h-38v-4.66h38Z"/>
      <path class="st0" d="M673.69,294.25v4.66h-38s0-1.95,0-4.66h38Z"/>
      <path class="st0" d="M673.69,284.01v4.66h-38v-4.66h38Z"/>
      <path class="st0" d="M673.69,243.07v4.66h-38s0-1.95,0-4.66h38Z"/>
      <path class="st0" d="M673.69,232.83v4.66h-38s0-1.95,0-4.66h38Z"/>
      <path class="st0" d="M673.69,222.6v4.66h-38s0-1.95,0-4.66h38Z"/>
      <path class="st0" d="M718.47,212.36v4.66h-82.77v-4.66h82.77Z"/>
      <polygon class="st0" points="668.22 202.13 635.7 202.13 635.7 206.78 668.22 206.78 685.95 206.78 718.47 206.78 714.38 202.13 685.95 202.13 668.22 202.13"/>
      <polygon class="st0" points="663.22 257.96 635.7 257.96 635.7 253.31 663.22 253.31 680.95 253.31 713.47 253.31 709.39 257.96 680.95 257.96 663.22 257.96"/>
      <polygon class="st0" points="663.22 263.8 635.7 263.8 635.7 268.46 663.22 268.46 680.95 268.46 712.16 268.46 708.07 263.8 680.95 263.8 663.22 263.8"/>
      <path class="st0" d="M673.69,278.69h-38v-4.66c5.17,0,32.7,0,32.7,0h5.3v4.66Z"/>
      <polygon class="st0" points="680.47 278.69 686.13 278.69 718.65 278.69 714.56 274.03 686.13 274.03 680.47 274.03 680.47 278.69"/>
      <polygon class="st0" points="675.05 191.89 635.7 191.89 635.7 196.55 675.05 196.55 679.9 196.55 712.42 196.55 708.34 191.89 679.9 191.89 675.05 191.89"/>
    </g>
    <g>
      <path class="st0" d="M467.26,196.55v-4.66h63.5v4.66h-63.5Z"/>
      <path class="st0" d="M467.26,206.78v-4.66h63.5s0,1.95,0,4.66h-63.5Z"/>
      <path class="st0" d="M467.26,217.02v-4.66h63.5s0,1.95,0,4.66h-63.5Z"/>
      <path class="st0" d="M467.26,227.25v-4.66h39.06s0,1.95,0,4.66h-39.06Z"/>
      <path class="st0" d="M467.26,237.49v-4.66h39.06s0,1.95,0,4.66h-39.06Z"/>
      <path class="st0" d="M467.26,247.72v-4.66h39.06v4.66h-39.06Z"/>
      <path class="st0" d="M467.26,257.96v-4.66h63.5v4.66h-63.5Z"/>
      <path class="st0" d="M467.26,268.2v-4.66h63.5v4.66h-63.5Z"/>
      <path class="st0" d="M467.26,278.43v-4.66h63.5s0,1.95,0,4.66h-63.5Z"/>
      <path class="st0" d="M467.26,288.67v-4.66h39.06s0,1.95,0,4.66h-39.06Z"/>
      <path class="st0" d="M467.26,298.9v-4.66h39.06s0,1.95,0,4.66h-39.06Z"/>
      <path class="st0" d="M467.26,309.14v-4.66h39.06s0,1.95,0,4.66h-39.06Z"/>
      <path class="st0" d="M467.26,319.37v-4.66h63.5v4.66h-63.5Z"/>
      <path class="st0" d="M467.26,329.61v-4.66h63.5v4.66h-63.5Z"/>
      <path class="st0" d="M467.26,339.85v-4.66h63.5v4.66h-63.5Z"/>
    </g>
    <g>
      <polyline class="st0" points="148.52 196.55 147.88 192.15 121.88 192.15 96.08 192.15 95.44 196.55"/>
      <polygon class="st0" points="150.03 206.78 149.38 202.38 94.58 202.38 93.93 206.78 150.03 206.78"/>
      <polygon class="st0" points="151.54 217.02 150.89 212.62 93.07 212.62 92.42 217.02 151.54 217.02"/>
      <polyline class="st0" points="153.04 227.25 152.4 222.85 91.56 222.85 90.92 227.25 153.04 227.25"/>
      <polygon class="st0" points="155.41 243.33 156.05 247.73 124.13 247.72 123.81 243.33 155.41 243.33"/>
      <polyline class="st0" points="125.29 263.8 125.61 268.2 159.07 268.2 158.42 263.8 125.29 263.8"/>
      <polyline class="st0" points="80.38 298.91 81.02 294.51 162.94 294.51 163.58 298.91 80.38 298.91"/>
      <polyline class="st0" points="128.99 314.98 129.31 319.37 166.59 319.38 165.95 314.98 128.99 314.98"/>
      <polygon class="st0" points="130.47 335.45 130.79 339.85 144.13 339.85 169.61 339.85 168.96 335.45 130.47 335.45"/>
      <polyline class="st0" points="126.77 284.27 127.09 288.67 162.08 288.67 161.43 284.27 126.77 284.27"/>
      <polygon class="st0" points="156.91 253.56 157.56 257.96 124.87 257.96 124.55 253.56 156.91 253.56"/>
      <polygon class="st0" points="123.07 233.09 123.39 237.49 154.55 237.49 153.9 233.09 123.07 233.09"/>
      <polyline class="st0" points="117.19 284.27 116.87 288.67 117.19 284.27 82.53 284.27 81.88 288.67 116.87 288.67"/>
      <polyline class="st0" points="78.87 309.14 79.52 304.74 164.44 304.74 165.09 309.14 78.87 309.14"/>
      <polyline class="st0" points="114.97 314.98 78.01 314.98 77.37 319.38 114.65 319.37 114.97 314.98"/>
      <polygon class="st0" points="75 335.45 74.35 339.85 99.83 339.85 113.17 339.85 113.49 335.45 75 335.45"/>
      <polygon class="st0" points="113.91 329.61 114.23 325.21 76.51 325.21 75.86 329.61 113.91 329.61"/>
      <polygon class="st0" points="118.35 268.2 118.67 263.8 85.54 263.8 84.89 268.2 118.35 268.2"/>
      <polygon class="st0" points="119.09 257.96 119.41 253.56 87.05 253.56 86.4 257.96 119.09 257.96"/>
      <polygon class="st0" points="120.57 237.49 120.89 233.09 90.06 233.09 89.41 237.49 120.57 237.49"/>
      <line class="st0" x1="148.52" y1="196.55" x2="95.53" y2="196.55"/>
      <polyline class="st0" points="129.73 325.21 167.45 325.21 168.1 329.61 130.05 329.61 129.73 325.21"/>
      <polyline class="st0" points="119.83 247.72 87.91 247.73 88.55 243.33 120.15 243.33 119.83 247.72"/>
      <polyline class="st0" points="117.93 274.03 84.04 274.03 83.39 278.43 117.61 278.43 117.93 274.03"/>
      <path class="st0" d="M126.03,274.03h33.89l.65,4.4s-33.31,0-34.22,0l-.32-4.4"/>
    </g>
    <g>
      <polyline class="st0" points="372.24 196.55 371.6 192.15 345.6 192.15 319.8 192.15 319.15 196.55"/>
      <polygon class="st0" points="373.75 206.78 373.1 202.38 318.3 202.38 317.65 206.78 373.75 206.78"/>
      <polygon class="st0" points="375.26 217.02 374.61 212.62 316.79 212.62 316.14 217.02 375.26 217.02"/>
      <polyline class="st0" points="376.76 227.25 376.11 222.85 315.28 222.85 314.64 227.25 376.76 227.25"/>
      <polygon class="st0" points="379.13 243.33 379.77 247.73 347.85 247.72 347.53 243.33 379.13 243.33"/>
      <polyline class="st0" points="349.01 263.8 349.33 268.2 382.78 268.2 382.14 263.8 349.01 263.8"/>
      <polyline class="st0" points="304.1 298.91 304.74 294.51 386.65 294.51 387.3 298.91 304.1 298.91"/>
      <polyline class="st0" points="352.71 314.98 353.03 319.37 390.31 319.38 389.67 314.98 352.71 314.98"/>
      <polygon class="st0" points="354.19 335.45 354.51 339.85 367.85 339.85 393.33 339.85 392.68 335.45 354.19 335.45"/>
      <polyline class="st0" points="350.49 284.27 350.81 288.67 385.8 288.67 385.15 284.27 350.49 284.27"/>
      <polygon class="st0" points="380.63 253.56 381.28 257.96 348.59 257.96 348.27 253.56 380.63 253.56"/>
      <polygon class="st0" points="346.79 233.09 347.11 237.49 378.27 237.49 377.62 233.09 346.79 233.09"/>
      <polyline class="st0" points="340.91 284.27 340.59 288.67 340.91 284.27 306.25 284.27 305.6 288.67 340.59 288.67"/>
      <polyline class="st0" points="302.59 309.14 303.24 304.74 388.16 304.74 388.81 309.14 302.59 309.14"/>
      <polyline class="st0" points="338.69 314.98 301.73 314.98 301.09 319.38 338.37 319.37 338.69 314.98"/>
      <polygon class="st0" points="298.72 335.45 298.07 339.85 323.55 339.85 336.89 339.85 337.21 335.45 298.72 335.45"/>
      <polygon class="st0" points="337.63 329.61 337.95 325.21 300.23 325.21 299.58 329.61 337.63 329.61"/>
      <polygon class="st0" points="342.07 268.2 342.39 263.8 309.26 263.8 308.61 268.2 342.07 268.2"/>
      <polygon class="st0" points="342.81 257.96 343.12 253.56 310.77 253.56 310.12 257.96 342.81 257.96"/>
      <polygon class="st0" points="344.29 237.49 344.6 233.09 313.78 233.09 313.13 237.49 344.29 237.49"/>
      <line class="st0" x1="372.24" y1="196.55" x2="319.25" y2="196.55"/>
      <polyline class="st0" points="353.45 325.21 391.17 325.21 391.82 329.61 353.77 329.61 353.45 325.21"/>
      <polyline class="st0" points="343.55 247.72 311.62 247.73 312.27 243.33 343.87 243.33 343.55 247.72"/>
      <polyline class="st0" points="341.65 274.03 307.75 274.03 307.11 278.43 341.33 278.43 341.65 274.03"/>
      <path class="st0" d="M349.75,274.03h33.89s.65,4.4.65,4.4c0,0-33.31,0-34.22,0l-.32-4.4"/>
    </g>
    <g>
      <path class="st0" d="M382.85,196.55v-4.66h77.26v4.66h-77.26Z"/>
      <path class="st0" d="M460.11,202.24v4.83h-77.26v-4.83h77.26Z"/>
      <rect class="st0" x="382.85" y="212.58" width="77.26" height="4.31"/>
      <path class="st0" d="M401.48,237.41v-4.48h39.32v4.48h-39.32Z"/>
      <path class="st0" d="M401.48,227.24c0-2.96,0-4.65,0-4.65h39.32v4.65h-39.32Z"/>
      <rect class="st0" x="401.48" y="243.27" width="39.32" height="4.31"/>
      <rect class="st0" x="401.48" y="253.45" width="39.32" height="4.48"/>
      <rect class="st0" x="401.48" y="263.8" width="39.32" height="4.31"/>
      <path class="st0" d="M401.48,278.35v-4.48h39.32v4.48h-39.32Z"/>
      <rect class="st0" x="401.48" y="284.22" width="39.32" height="4.31"/>
      <rect class="st0" x="401.48" y="294.39" width="39.32" height="4.48"/>
      <rect class="st0" x="401.48" y="304.74" width="39.32" height="4.31"/>
      <rect class="st0" x="401.48" y="314.86" width="39.32" height="4.48"/>
      <rect class="st0" x="401.48" y="325.21" width="39.32" height="4.31"/>
      <polygon class="st0" points="440.79 339.85 401.48 339.85 403.48 335.54 440.79 335.54 440.79 339.85"/>
    </g>
  </g>
  <g>
    <path class="st0" d="M321.12,373.36c-2.96,1.68-7.9,10.08-9.93,13.04-3.23,4.71-6.46,9.2-8.07,14.59,3.86-.06,6.91-2.81,9.62-4.97,2.8-2.23,5.26-5.2,8.69-6.52-.54,4.55-3.76,9.17-7.14,13.66-2.74,3.64-8.07,11.45-14.37,9.79-3.43-.9-6.99-8.51-6.73-13.52.47-9.09,9.9-14.38,12.72-21.1-3.27.24-6.22-1.36-5.9-4.66.5-5.16,9.43-3.88,13.35-5.59,1.85-.81,4.2-3.98,6.52-6.52,2-2.19,4.51-5.22,7.2-8.26l.3-.13c1.39-.64,2.8-2.1,3.48-3.96,1.29-1.33,2.59-2.58,3.88-3.68h0c1.19-.2,2.4-.39,3.62-.57,1.57-.23,3.16-.45,4.77-.66.33.92.47,1.99.34,2.99-.39,3.02-5.22,7.08-7.45,9.31-3.1,3.1-5.63,5.46-8.07,8.38,3.39-.23,7.9-1.22,13.35-1.86,3.71-.44,9.32-1.87,12.17-.66-.29.29-.5.5-.59.57-.8.69-1.56,1.29-2.3,1.85-.74.55-1.45,1.06-2.16,1.54-.79.53-1.58,1.04-2.38,1.56-2.6.46-5.26.82-7.85,1.36-2.78.58-5.71,1.15-8.69,1.86-2.73.65-6.33,1.01-8.38,2.17Z"/>
    <path d="M321.43,389.5c-3.43,1.32-5.89,4.29-8.69,6.52-2.71,2.16-5.76,4.91-9.62,4.97,1.6-5.39,4.84-9.88,8.07-14.59,2.03-2.95,6.97-11.36,9.93-13.04,2.05-1.16,5.65-1.52,8.38-2.17,2.98-.71,5.91-1.28,8.69-1.86,2.59-.54,5.25-.9,7.85-1.36-.64.41-1.28.82-1.94,1.26-1.99,1.32-3.13,3.51-3.13,5.83,0,.26.02.53.05.79-.49.09-.96.19-1.42.29-2.84.59-5.7,1.15-8.5,1.82-.88.21-1.71.37-2.49.52-.78.15-1.49.28-2.12.41-.41.08-.78.17-1.09.26-.31.08-.55.16-.7.21-.16.16-.43.44-.74.8-.49.58-1.08,1.35-1.7,2.2.7.09,1.28.26,1.7.43.43.17.72.33.85.4.12.07.13.08.13.08l.54.35c1.28.91,2.06,2.12,2.46,3.12.2.51.33.98.41,1.42.08.44.11.85.11,1.24l-.05.83c-.45,3.65-1.83,6.74-3.38,9.51-.79,1.38-1.63,2.69-2.5,3.95-.87,1.26-1.76,2.46-2.63,3.62-.56.73-1.32,1.82-2.29,3.06-.97,1.25-2.14,2.65-3.5,4.01-.69.69-1.44,1.37-2.27,2.03-.83.66-1.73,1.28-2.75,1.85-1.01.56-2.14,1.06-3.37,1.43-1.24.37-2.59.59-4.02.59h-.02c-1.17,0-2.35-.16-3.47-.45l-.07-.02c-2.82-.81-4.5-2.34-5.87-3.8-.68-.75-1.27-1.53-1.81-2.34-.54-.81-1.01-1.65-1.46-2.51-.86-1.73-1.58-3.54-2.09-5.42-.51-1.88-.82-3.85-.85-5.91,0-.17,0-.48.03-.95.09-1.71.4-3.33.85-4.84.45-1.51,1.05-2.91,1.72-4.17.68-1.28,1.42-2.45,2.19-3.52.76-1.07,1.55-2.05,2.31-2.96.75-.86,1.46-1.69,2.13-2.46-1.45-1.82-2.42-4.24-2.42-6.65,0-.08,0-.16,0-.25,0-.43.02-.85.07-1.22.08-.83.26-1.66.54-2.48.28-.81.66-1.59,1.12-2.29.46-.71.98-1.33,1.54-1.86.56-.53,1.13-.98,1.7-1.36,1.15-.74,2.25-1.22,3.28-1.57,1.03-.35,2-.56,2.9-.74.79-.15,1.54-.27,2.24-.37.7-.1,1.34-.18,1.92-.25.45-.06.87-.12,1.22-.18.35-.06.63-.12.83-.16.22-.2.56-.54.95-.97.46-.51.99-1.12,1.57-1.79.58-.67,1.21-1.4,1.88-2.13.42-.45.87-.96,1.35-1.51.31,0,.62.02.92.02,1.71,0,3.4-.14,5.05-.41,1.66-.28,3.27-.7,4.84-1.32l.29-.13c-2.69,3.04-5.2,6.07-7.2,8.26-2.32,2.54-4.67,5.71-6.52,6.52-3.92,1.71-12.84.43-13.35,5.59-.32,3.3,2.63,4.9,5.9,4.66-2.82,6.72-12.25,12.02-12.72,21.1-.26,5,3.31,12.62,6.73,13.52,6.3,1.66,11.64-6.15,14.37-9.79,3.38-4.49,6.6-9.1,7.14-13.66Z"/>
    <path d="M330.85,349.21c-1.28,1.32-2.54,2.71-3.77,4.09l-.29.13c-1.57.62-3.18,1.04-4.84,1.32-1.65.27-3.34.41-5.05.41-.31,0-.61,0-.92-.02.87-1,1.86-2.15,2.91-3.38,1.17-1.36,2.42-2.81,3.74-4.27.57-.15,1.1-.33,1.6-.52-.29-.09-.6-.18-.9-.26.3-.33.6-.66.91-.98,1.91-2.05,3.91-4.06,6.03-5.86.32-.27.64-.53.97-.79,4.46-.82,9.12-1.45,13.79-2.04.48-.06.95-.12,1.43-.18.46.38.85.79,1.19,1.19.45.53.81,1.07,1.12,1.6.61,1.07,1.05,2.15,1.34,3.27.04.16.08.33.12.49-1.46.17-2.92.34-4.36.52-.92.12-1.82.23-2.73.35-.59-1.65-1.77-2.82-3.07-2.28-1.68.69-3.48,1.94-5.32,3.51h0c-1.19.2-2.36.41-3.51.63,0,.03,0,.07,0,.1l.02.6c.01.83-.14,1.62-.4,2.36Z"/>
    <path d="M389.71,345.42c.02-.4,0-.78-.04-1.12,1.05-.41,1.99-.76,2.84-1.1.87-.34,1.64-.66,2.34-.98.49-.23.95-.46,1.4-.7.33,1.03.51,2.12.51,3.21,0,.07,0,.13,0,.2,0,.23,0,.47-.02.72v.24c-.23,1.92-.74,2.87-1.19,3.71-1.16.46-2.36.91-3.66,1.42.83.12,1.69.2,2.59.26-.23.32-.47.62-.71.92-1.14,1.39-2.45,2.72-3.86,3.99-1.09.96-2.15,1.86-3.28,2.67-1.13.82-2.33,1.56-3.69,2.2-.48.2-.99.42-1.61.6-.61.17-1.33.3-2.25.34.19-.22.38-.44.57-.66,2.1-2.38,4.25-4.71,6.43-7-.46-.8-.77-1.69-.88-2.65-.02-.21-.04-.41-.05-.61,2.39-2.13,4.5-4.56,4.57-5.65Z"/>
    <path class="st0" d="M385.14,350.85c0,.08,0,.15,0,.22-2.38,2.12-5.05,3.95-6.26,3.89-1.18-.07-2.58-1.19-2.82-2.4-.74-3.58,6-10.35,8.89-11.37.34-.04.69-.08,1.05-.15h0c1.44.06,3.32,1.03,3.66,3.26-.02,0-.05.02-.07.03-2.71,1.06-4.46,3.66-4.46,6.52Z"/>
    <path class="st0" d="M385.14,350.85c0-2.86,1.75-5.46,4.46-6.52.02,0,.05-.02.07-.03.05.34.07.72.04,1.12-.07,1.09-2.18,3.52-4.57,5.65,0-.07,0-.15,0-.22Z"/>
    <path d="M384.95,341.19c-2.89,1.02-9.63,7.79-8.89,11.37.25,1.21,1.64,2.33,2.82,2.4,1.22.07,3.88-1.77,6.26-3.89,0,.2.02.41.05.61.11.96.42,1.86.88,2.65-2.18,2.29-4.33,4.62-6.43,7-.19.22-.38.43-.57.66-.03,0-.06,0-.09,0h-.61c-1.06-.1-1.98-.31-2.79-.62-.18-.63-.42-1.28-.73-1.96-.29-.61-.67-1.26-1.16-1.89-.49-.63-1.09-1.25-1.82-1.79-.69-.52-1.48-.95-2.32-1.26-.12-.04-.24-.08-.35-.12-.04-.15-.08-.3-.11-.46l-.02-.08c-.12-.6-.2-1.26-.2-2.01.04-1.5.31-2.75.7-3.85.38-1.09.89-2.04,1.39-2.95.77-1.32,1.65-2.5,2.58-3.6,1.45-.08,2.89-.15,4.33-.21h.12c.07,0,.16-.01.26-.01h.07c.86,0,2.36.11,4.12.12.64,0,1.32-.02,2.05-.08.16-.01.31-.03.47-.04Z"/>
    <path d="M512.95,382.56c0,.99-.21,1.99-.65,2.93-.42.94-1,1.81-1.66,2.56-.66.75-1.4,1.39-2.13,1.86-.74.49-1.46.84-2.13,1.11-.67.27-1.3.45-1.86.6-2.19.51-3.72.62-3.72.68-3.4.97-6.77,2.14-10.09,3.47-3.32,1.33-6.59,2.83-9.83,4.45-3.24,1.62-6.44,3.36-9.59,5.18-3.16,1.82-6.27,3.72-9.35,5.66-.12.07-.35.24-.66.47-.31.23-.7.53-1.12.86-.44.33-.91.7-1.45,1.08-.55.38-1.17.79-1.93,1.19-.51.25-1.1.54-1.84.77-.74.23-1.62.4-2.73.42h-.01c-.33,0-.49-.01-.56-.02h-.2c-2.34-.27-3.64-1.14-4.69-1.88-.52-.39-.96-.79-1.37-1.2-.4-.42-.76-.84-1.1-1.29-.36-.51-.7-1.02-1.02-1.58-.12.16-.24.31-.36.47-.3.38-.61.75-.97,1.15-.36.39-.78.8-1.33,1.24-.38.27-.8.61-1.4.94-.6.32-1.39.63-2.49.84h0s-.04,0-.06.01c0,0-.01,0-.02,0-.51.07-1,.11-1.44.11h-.02c-1.99,0-3.6-.6-4.86-1.28-.63-.35-1.19-.73-1.69-1.12-.51-.4-.96-.82-1.37-1.25-.8-.88-1.5-1.76-2.08-2.77-.57-1.01-1.02-2.16-1.33-3.58h0c-.05-.25-.09-.49-.12-.74-.07.12-.15.24-.23.37-.54.89-1.21,2.01-1.95,3.15-.56.86-1.16,1.74-1.83,2.61-.35.44-.7.87-1.11,1.32-.41.45-.9.91-1.51,1.4-.42.3-.91.68-1.59,1.01-.67.33-1.53.64-2.69.8-.39.05-.72.06-1.03.06h-.02c-2.37-.02-4.12-.87-5.38-1.7-.64-.43-1.19-.88-1.68-1.36-.49-.47-.92-.96-1.31-1.46-.59-.8-1.13-1.61-1.58-2.48-.45-.88-.81-1.82-1.06-2.91-.04.06-.08.13-.12.2-.52.89-1.15,1.96-1.9,3.11-.56.85-1.18,1.73-1.97,2.64-.4.45-.84.92-1.38,1.38-.53.47-1.16.93-1.93,1.37-.51.28-1.09.55-1.75.76-.66.21-1.39.37-2.19.42-.27.02-.44.02-.53.02h-.07c-2.1,0-3.85-.7-5.15-1.51-.66-.41-1.23-.86-1.73-1.32-.51-.47-.95-.96-1.34-1.46-.64-.84-1.19-1.71-1.64-2.64-.44-.93-.78-1.92-1-3.01-.18.23-.36.46-.54.69-.2.24-.54.77-.97,1.44-.44.68-.98,1.5-1.57,2.35-.31.43-.63.87-1.01,1.32-.38.46-.81.93-1.33,1.43-.52.46-1.15,1.03-2.02,1.53-.88.5-2,.94-3.49,1.13h-.13c-.28.04-.52.04-.79.04h-.02c-3.4-.1-5.33-1.51-6.82-2.71-.74-.64-1.38-1.31-1.96-2.03-.57-.71-1.06-1.47-1.5-2.3-.24-.47-.48-.96-.68-1.48-.2-.53-.38-1.1-.51-1.74-.26.33-.52.66-.78,1-.13.16-.45.66-.88,1.33-.43.68-.97,1.53-1.57,2.38-.31.44-.65.9-1.03,1.37-.39.47-.83.96-1.37,1.47-.53.47-1.17,1.04-2.06,1.55-.88.51-2.01.94-3.51,1.12-.02,0-.05,0-.07,0h-.02c-.27.02-.52.03-.78.03h-.02c-3.53-.12-5.39-1.59-6.91-2.82-.74-.66-1.4-1.36-1.97-2.1-.58-.75-1.08-1.55-1.53-2.43-.29-.59-.56-1.22-.78-1.92-.22-.7-.39-1.47-.47-2.35-.04-.39-.05-.79-.05-1.19h0c.09-4.61,1.85-7.95,3.51-10.98.85-1.49,1.76-2.9,2.59-4.16.84-1.26,1.61-2.37,2.2-3.27,1.03-1.57,2.05-3.01,3.03-4.34-.52-.76-.91-1.63-1.1-2.57-.05-.22-.08-.43-.1-.65,2.19-.41,4.63-.72,7.23-1.21.22-.04.43-.08.65-.13-.37.24-.73.47-1.09.71,1.81.38,5-.03,6.52-.93-2.56,4.11-5.96,7.92-9.31,13.03-2.74,4.18-7.57,10.48-7.14,15.21.21,2.27,2.92,5.48,4.97,5.28,2.02-.2,4.11-4.59,5.59-6.52,5.69-7.45,11.8-12.79,21.1-15.52-1.23,5-8.96,10.26-8.07,17.07.27,2.08,2.87,5.2,4.97,4.97,1.93-.22,3.95-4.4,5.59-6.52,5.63-7.31,12.36-13.42,21.41-15.52-1.87,4.79-9.33,10.03-8.69,17.07.21,2.29,2.2,5.1,4.34,4.97,2.75-.17,5.25-6.19,7.14-8.69,6.82-9.01,15.93-18.78,25.14-22.04-1.91,3.85-4.95,7.19-7.76,11.79-2.28,3.74-6.45,9.27-6.21,13.66.12,2.22,2.52,5.55,4.66,5.28,1.97-.25,5.68-7.5,6.83-9,5.08-6.64,9.39-11.62,15.21-16.45,2.83-2.35,6.34-4.93,10.24-5.28-2.5,3.5-4.91,7.46-7.76,12.1-2.47,4.03-6.91,8.7-5.9,14.28.35,1.94,2.75,4.72,4.97,4.34,1.59-.27,4.85-6.26,5.9-7.76,7.96-11.35,20.53-18.72,39.42-14.59-5.51,2.4-10.6,4.53-17.38,8.07-3.56,1.86-14.8,5.95-14.9,10.86-.03,1.91,1.96,4.51,3.42,4.66,1.67.17,4.2-2.46,6.2-3.72,12.54-7.87,26-15.4,40.66-19.55,2.29-.65,5.88-.28,7.14-3.1-2.13-1.72-5.72-.61-8.38,0-2.86.66-5.72,1.92-8.07,2.48-3.18-4.68-14.29-1.43-17.38-6.21,3.36-4.08,8.35-6.54,14.59-7.76-.24,1.38.41,1.86.31,3.1,2.59-4.14,7.94-5.51,12.72-7.45.69-1.86.32-4.7-.93-5.59-7.88-.47-15.02,2.82-21.1,5.59-6.12,2.79-12.49,5.94-15.83,11.48-.37,1.53.76,3.15.31,3.72-6.89,1.08-12.12,3.81-17.07,6.83,2.32-3.47,4.31-7.17,7.45-11.48,2.54-3.49,7.72-7.09,8.07-11.17.24-2.73-1.28-5.01-3.1-5.28-3.15-.45-7.5,4.43-9.31,5.9-8.88,7.2-17.58,14.52-24.83,21.1,2.48-3.39,4.44-7.14,7.76-11.48,2.43-3.18,7.84-7.33,7.76-11.48-.18-9.23-10.86.14-13.04,1.86-9.41,7.43-17.75,14.41-25.76,22.04,0-.31.25-.37.31-.62,1.73-2.68,4.58-6.32,7.76-10.24,2.96-3.65,6.59-7.3,7.45-9.93.83-2.57-.44-6.41-2.48-6.52-2.06-.11-7.17,5.95-9,7.45-3.45,2.82-6.26,4.76-9.62,6.83,2.21-.38,4.76-.41,7.14-.62-2.08,2.16-3.79,4.69-5.9,6.83-7.54,1.04-13.06,4.12-18.93,6.83,6.59-11.05,17.71-24.62,28.24-34.45,3.32-3.09,9.68-6.8,10.24-10.86.43-3.11-1.26-5.59-3.41-5.59-2.91,0-6.78,5.68-9,7.45-2.54,2.02-4.91,3.13-7.52,4.17.45-.83.97-1.79,1.18-3.71v-.24c.02-.24.03-.48.03-.72,0-.07,0-.13,0-.2,0-1.09-.18-2.18-.51-3.21.19-.1.37-.21.56-.32.62-.37,1.23-.79,1.87-1.3,0,0,.06-.05.19-.17.13-.12.32-.31.53-.54.43-.45.97-1.05,1.59-1.72.63-.67,1.29-1.39,2.06-2.14.77-.74,1.64-1.5,2.67-2.23.7-.46,1.5-.99,2.51-1.41,1.01-.42,2.23-.73,3.78-.77h.06c3.39,0,6.29,1.86,7.93,4.05.84,1.11,1.44,2.32,1.84,3.58.4,1.26.59,2.58.59,3.91,0,.63-.04,1.23-.11,1.8v.09c-.39,2.69-1.56,4.67-2.72,6.22-.59.78-1.2,1.47-1.82,2.1-.62.63-1.25,1.21-1.86,1.75-.15.13-.3.26-.46.39.67.19,1.29.44,1.84.74.56.3,1.04.64,1.46.98.61.51,1.11,1.03,1.52,1.56.42.53.75,1.06,1.04,1.58.24.46.46.92.64,1.38.28-.23.7-.57,1.2-.97.5-.4,1.09-.86,1.72-1.33.78-.57,1.63-1.18,2.57-1.77.94-.6,1.96-1.18,3.09-1.7.76-.33,1.57-.68,2.5-.93.92-.26,1.97-.44,3.21-.46h.03c1.12,0,2.45.19,3.82.78.68.29,1.35.69,1.96,1.16.61.48,1.18,1.03,1.64,1.64.68.91,1.16,1.83,1.49,2.73.39-.36.84-.77,1.32-1.2.66-.57,1.38-1.2,2.2-1.82.82-.62,1.75-1.24,2.81-1.82.72-.37,1.52-.75,2.45-1.04.93-.29,2-.49,3.26-.51h0c.43,0,1.02.03,1.69.15,1.57.28,2.9.9,4,1.69,1.1.79,1.98,1.75,2.65,2.73.57.84,1.03,1.74,1.37,2.69.34.94.57,1.93.68,2.95,2.5-1.43,5-2.59,7.33-3.66,1.42-.65,2.96-1.35,4.61-2.05,1.65-.7,3.41-1.39,5.28-2.01,1.87-.62,3.86-1.17,5.96-1.56,2.1-.39,4.3-.63,6.61-.63h.12c.61,0,1.21.02,1.8.06.66.04,1.31.17,1.93.39.62.22,1.21.53,1.75.91,1.09.83,1.81,1.67,2.33,2.47.51.81.82,1.59,1.09,2.31.25.74.42,1.46.53,2.18.11.71.16,1.42.17,2.14,0,.73-.06,1.46-.18,2.2-.12.74-.31,1.5-.6,2.28-.34.93-.88,1.77-1.55,2.46-.68.7-1.5,1.25-2.42,1.62-1.31.52-2.55.97-3.67,1.39-1.11.42-2.11.82-2.92,1.21-.11.06-.23.11-.34.17.22-.06.45-.11.68-.16.69-.14,1.61-.41,2.75-.64,1.14-.23,2.51-.44,4.09-.46h.01c1.02,0,2.17.1,3.44.44.63.17,1.28.4,1.94.72.65.31,1.3.71,1.91,1.19,1.75,1.36,2.69,3.41,2.69,5.51Z"/>
    <path class="st0" d="M497.71,382.67c2.66-.61,6.24-1.72,8.38,0-1.26,2.82-4.85,2.46-7.14,3.1-14.66,4.16-28.12,11.68-40.66,19.55-2.01,1.26-4.53,3.89-6.2,3.72-1.46-.15-3.45-2.75-3.42-4.66.1-4.91,11.34-9,14.9-10.86,6.78-3.54,11.87-5.67,17.38-8.07-18.89-4.14-31.46,3.24-39.42,14.59-1.05,1.5-4.31,7.49-5.9,7.76-2.22.38-4.61-2.41-4.97-4.34-1.02-5.58,3.43-10.25,5.9-14.28,2.85-4.64,5.26-8.6,7.76-12.1-3.9.35-7.41,2.93-10.24,5.28-5.82,4.83-10.13,9.81-15.21,16.45-1.15,1.5-4.85,8.75-6.83,9-2.13.27-4.53-3.06-4.66-5.28-.25-4.38,3.92-9.92,6.21-13.66,2.81-4.6,5.85-7.94,7.76-11.79-9.21,3.26-18.32,13.03-25.14,22.04-1.89,2.5-4.39,8.52-7.14,8.69-2.14.13-4.14-2.68-4.34-4.97-.64-7.04,6.82-12.28,8.69-17.07-9.05,2.09-15.79,8.21-21.41,15.52-1.63,2.12-3.66,6.3-5.59,6.52-2.1.24-4.7-2.88-4.97-4.97-.89-6.81,6.84-12.07,8.07-17.07-9.31,2.73-15.41,8.07-21.1,15.52-1.47,1.93-3.56,6.32-5.59,6.52-2.05.2-4.76-3.01-4.97-5.28-.43-4.73,4.4-11.03,7.14-15.21,3.35-5.12,6.75-8.92,9.31-13.03-1.51.9-4.7,1.31-6.52.93.36-.24.72-.47,1.09-.71,2.99-.59,6.17-1.45,9.41-2.98,1.43-.7,2.55-1.82,3.24-3.25l.04-.08c.46-.96.7-1.98.7-3.04h0v-.05c0-.5-.03-1.02-.11-1.55,1.54-1.49,3.08-2.68,4.25-2.61,2.49.14,3.05,3.25,2.79,6.52-5.4,6.91-11.27,13.35-15.83,21.1,5.74-2.64,11.23-5.53,18.62-6.52,8.1-11.14,17.19-21.29,27-30.73-1.57.04-3.1.03-4.55-.05.31-.42.61-.87.91-1.37.05-.1.11-.2.16-.3,2.61-1.04,4.98-2.14,7.52-4.17,2.22-1.77,6.09-7.45,9-7.45,2.16,0,3.85,2.48,3.41,5.59-.56,4.06-6.92,7.77-10.24,10.86-10.53,9.83-21.65,23.4-28.24,34.45,5.87-2.71,11.39-5.79,18.93-6.83,2.11-2.14,3.82-4.66,5.9-6.83-2.38.21-4.93.24-7.14.62,3.36-2.06,6.17-4,9.62-6.83,1.83-1.5,6.94-7.56,9-7.45,2.04.11,3.32,3.95,2.48,6.52-.86,2.63-4.49,6.28-7.45,9.93-3.18,3.92-6.03,7.56-7.76,10.24-.06.25-.31.31-.31.62,8.01-7.62,16.35-14.6,25.76-22.04,2.18-1.72,12.86-11.09,13.04-1.86.08,4.16-5.33,8.3-7.76,11.48-3.32,4.34-5.28,8.1-7.76,11.48,7.25-6.59,15.95-13.9,24.83-21.1,1.81-1.47,6.16-6.35,9.31-5.9,1.82.26,3.34,2.54,3.1,5.28-.35,4.09-5.53,7.69-8.07,11.17-3.14,4.31-5.13,8.01-7.45,11.48,4.95-3.02,10.18-5.75,17.07-6.83.45-.57-.69-2.19-.31-3.72,3.34-5.54,9.71-8.7,15.83-11.48,6.08-2.77,13.22-6.05,21.1-5.59,1.25.88,1.62,3.73.93,5.59-4.79,1.94-10.14,3.31-12.72,7.45.1-1.24-.55-1.72-.31-3.1-6.23,1.22-11.22,3.67-14.59,7.76,3.09,4.77,14.2,1.52,17.38,6.21,2.35-.56,5.21-1.83,8.07-2.48Z"/>
    <path d="M394.47,351.27c1.45.08,2.98.09,4.55.05-9.81,9.43-18.9,19.59-27,30.73-7.39.99-12.88,3.88-18.62,6.52,4.56-7.76,10.42-14.2,15.83-21.1.25-3.27-.3-6.38-2.79-6.52-1.17-.07-2.71,1.12-4.25,2.61-.17-1.15-.53-2.34-1.14-3.44-.44-.81-1.01-1.54-1.63-2.16-.25-.25-.51-.48-.78-.7.47-.4.96-.8,1.5-1.19.67-.43,1.39-.94,2.35-1.37.96-.43,2.17-.76,3.8-.82h.02s.03,0,.09,0c.11,0,.32,0,.62.03.72.05,1.47.2,2.19.44.3,1.08.71,1.99,1.21,2.76.56.89,1.24,1.62,1.95,2.28.91.78,1.93,1.49,3.23,1.98.11.4.21.8.28,1.18.19.98.25,1.91.28,2.82.96-1.14,1.94-2.27,2.92-3.39.92-.04,1.64-.17,2.25-.34.62-.18,1.13-.4,1.61-.6,1.36-.64,2.56-1.38,3.69-2.2,1.13-.82,2.19-1.72,3.28-2.67,1.41-1.28,2.72-2.6,3.86-3.99.25-.3.48-.61.71-.92Z"/>
    <path class="st0" d="M395.54,349.59c-.05.1-.11.21-.16.3-.3.5-.6.95-.91,1.37-.9-.06-1.76-.14-2.59-.26,1.29-.51,2.5-.96,3.66-1.42Z"/>
    <path d="M396.24,341.52c-.45.25-.91.48-1.4.7-.7.32-1.47.64-2.34.98-.85.33-1.79.69-2.84,1.1-.34-2.23-2.22-3.19-3.66-3.26.27-.04.55-.1.84-.16.83-.19,1.77-.47,2.73-.94.96-.46,1.94-1.1,2.85-1.99.36-.35.67-.72.93-1.12,1.27,1.18,2.3,2.84,2.88,4.69Z"/>
    <path d="M394.58,332.4v.12c0,.36-.02.59-.02.69-.04.89-.25,1.74-.59,2.52-.16.38-.37.76-.6,1.11-.15-.14-.31-.27-.47-.4-1.13-.92-2.28-1.56-3.46-1.98-1.07-.37-2.16-.57-3.27-.61.52-.2.99-.47,1.37-.84.38-5.87-8.11-5.27-14.59-4.97-5.75.27-12.58.46-19.24.93-5.42.38-11.1,1-17.38,1.55-9.82.86-28.55,1.9-30.73,7.14-3.97,9.56,9.22,11.93,17.02,9.83-1.32,1.46-2.57,2.91-3.74,4.27-1.06,1.23-2.04,2.38-2.91,3.38-1.61-.05-3.24-.21-4.86-.54-1.93-.39-3.85-1.01-5.74-1.96-1.87-.97-3.74-2.35-5.22-4.39-1.48-2-2.4-4.68-2.4-7.35v-.07l7-.02h-7c0-2.08.48-4.1,1.29-6.02.48-1.13,1.11-2.06,1.79-2.84.68-.78,1.42-1.4,2.13-1.92.73-.52,1.45-.95,2.18-1.32.73-.37,1.47-.69,2.22-.98,1.49-.57,3.04-1.02,4.63-1.41,1.6-.38,3.24-.7,4.92-.98,3.34-.55,6.83-.94,10.08-1.25,3.26-.31,6.28-.53,8.68-.75,3.09-.27,6.06-.57,8.97-.83,2.9-.27,5.73-.53,8.53-.73,3.44-.24,6.87-.41,10.16-.55,1.64-.07,3.25-.14,4.79-.2,1.55-.06,3.03-.13,4.43-.19.83-.04,1.73-.09,2.68-.13.95-.04,1.94-.06,2.96-.06,1.4.02,2.85.05,4.35.23,1.51.18,3.09.52,4.76,1.16.83.33,1.72.78,2.58,1.37.86.6,1.7,1.35,2.44,2.31,1.48,1.85,2.26,4.37,2.26,6.65Z"/>
    <path d="M392.89,336.44c.16.12.31.26.47.4-.26.4-.58.78-.93,1.12-.92.89-1.9,1.52-2.85,1.99-.96.46-1.9.75-2.73.94-.29.06-.57.12-.84.16h0c-.22,0-.44,0-.64.03-.13.02-.27.06-.42.11-.16.02-.32.03-.47.04-.73.06-1.41.07-2.05.08-1.76,0-3.26-.12-4.12-.12h-.07c-.1,0-.18,0-.26,0h-.12c-1.43.07-2.88.14-4.33.22.33-.38.66-.76,1-1.12,1-1.05,1.98-2.01,3.02-2.86,1.04-.86,2.13-1.61,3.33-2.28.42-.22.86-.44,1.37-.64.13-.05.27-.1.42-.15,1.27,0,2.5-.12,3.5-.5,1.11.04,2.2.24,3.27.61,1.18.42,2.34,1.06,3.46,1.98Z"/>
    <path class="st0" d="M372.95,328.04c6.48-.31,14.96-.91,14.59,4.97-.38.37-.84.64-1.37.84-.12,0-.24-.01-.36-.01-.52,0-1.07.04-1.71.15-.55.1-1.01.23-1.43.37-1.75.02-3.59-.16-5.06-.1-10.29.43-20.95,1.37-31.16,2.62-.14-.12-.29-.24-.44-.35-.63-.49-1.43-.95-2.33-1.29-.9-.33-1.91-.55-2.99-.55h-.04c-1.2,0-2.34.25-3.33.66-1.36.57-2.6,1.26-3.76,2.03-.81.54-1.58,1.11-2.34,1.72-5.53,1.01-10.76,2.31-15.38,4.17,1.34,2.3,4.6,2.69,7.48,3.46-.24.26-.47.52-.7.79-7.8,2.1-20.99-.28-17.02-9.83,2.17-5.24,20.91-6.28,30.73-7.14,6.28-.55,11.96-1.17,17.38-1.55,6.67-.47,13.49-.66,19.24-.93Z"/>
    <path class="st0" d="M385.8,333.84c.12,0,.24,0,.36.01-1,.38-2.23.5-3.5.5.42-.14.88-.26,1.43-.37.64-.11,1.19-.15,1.71-.15Z"/>
    <path class="st0" d="M385.36,341.08c.2-.03.41-.04.64-.03-.36.06-.71.11-1.05.15.15-.05.29-.09.42-.11Z"/>
    <path d="M377.6,334.25c1.47-.06,3.31.12,5.06.1-.15.05-.29.1-.42.15-.51.2-.95.42-1.37.64-1.2.66-2.29,1.42-3.33,2.28-1.04.86-2.02,1.81-3.02,2.86-.34.36-.67.74-1,1.12-3.87.21-7.79.49-11.7.83-3.89.34-7.78.73-11.61,1.17-.04-.16-.07-.33-.12-.49-.29-1.12-.73-2.2-1.34-3.27-.31-.53-.68-1.07-1.12-1.6-.34-.4-.73-.8-1.19-1.19,10.2-1.25,20.87-2.18,31.16-2.62Z"/>
    <path d="M375.58,361.38c-1.3-.49-2.32-1.2-3.23-1.98-.71-.66-1.38-1.39-1.95-2.28-.5-.78-.91-1.68-1.21-2.76.12.04.24.08.35.12.83.31,1.63.73,2.32,1.26.73.55,1.33,1.16,1.82,1.79.49.63.87,1.28,1.16,1.89.31.68.55,1.33.73,1.96Z"/>
    <path class="st0" d="M362.29,365.14h0c0,1.07-.23,2.09-.7,3.05l-.04.08c-.69,1.43-1.81,2.56-3.24,3.25-3.24,1.53-6.43,2.39-9.41,2.98,2.49-1.61,5.27-3.31,8.53-6.11,1.21-1.04,2.98-3.13,4.75-4.84.08.53.11,1.05.11,1.55v.04Z"/>
    <path d="M361.03,360.12c.61,1.1.98,2.29,1.14,3.44-1.77,1.7-3.54,3.8-4.75,4.84-3.27,2.8-6.05,4.5-8.53,6.11-.22.04-.44.09-.65.13-2.6.49-5.04.8-7.23,1.21-.03-.27-.05-.53-.05-.79,0-2.32,1.15-4.51,3.13-5.83.66-.44,1.31-.85,1.94-1.26,3.23-.57,6.37-1.29,9.22-2.67,0-1.49-.69-2.37-1.8-2.84.11-.11.23-.24.36-.37.47-.49,1.07-1.12,1.68-1.77.64-.67,1.32-1.38,2.07-2.09.34-.32.68-.64,1.06-.95.27.21.52.45.78.7.62.62,1.19,1.34,1.63,2.16Z"/>
    <path d="M358.62,357.26c-.37.32-.72.64-1.06.95-.75.71-1.43,1.42-2.07,2.09-.61.65-1.21,1.28-1.68,1.77-.13.13-.25.26-.36.37-2.85-1.21-8.45.22-12.17.66-5.44.65-9.96,1.63-13.35,1.86,2.44-2.91,4.97-5.28,8.07-8.38,2.23-2.23,7.05-6.29,7.45-9.31.13-1-.01-2.07-.34-2.99.91-.12,1.82-.24,2.73-.35,1.44-.18,2.9-.36,4.36-.52.21.96.32,1.95.33,2.99,0,.54-.03,1.08-.1,1.6v.09c-.35,2.36-1.24,3.96-2.09,5.32-.36.55-.73,1.06-1.1,1.55,1.01-.11,2.06-.19,3.18-.19.99.02,2.05.06,3.21.28,1.16.22,2.41.62,3.79,1.39.4.23.8.5,1.19.82Z"/>
    <path class="st0" d="M353.46,362.45c1.11.47,1.81,1.34,1.8,2.84-2.85,1.38-5.99,2.1-9.22,2.67.8-.52,1.59-1.02,2.38-1.56.71-.48,1.42-.99,2.16-1.54.74-.56,1.5-1.16,2.3-1.85.09-.07.3-.27.59-.57Z"/>
    <path class="st0" d="M346.45,336.87c-.48.06-.96.12-1.43.18-4.68.59-9.33,1.22-13.79,2.04.76-.61,1.53-1.18,2.34-1.72,1.16-.77,2.4-1.46,3.76-2.03.99-.41,2.13-.66,3.33-.66h.04c1.07,0,2.08.21,2.99.55.9.34,1.7.79,2.33,1.29.15.11.3.23.44.35Z"/>
    <path class="st0" d="M340.05,342.01c1.3-.53,2.49.64,3.07,2.28-1.61.21-3.2.43-4.77.66-1.22.18-2.43.37-3.62.57,1.84-1.57,3.64-2.82,5.32-3.51Z"/>
    <path d="M331.22,346.15c1.14-.22,2.32-.43,3.51-.63-1.28,1.1-2.59,2.35-3.88,3.68.27-.73.42-1.53.4-2.36l-.02-.6s0-.06,0-.1Z"/>
    <path d="M331.22,339.08c-.33.26-.65.52-.97.79-2.12,1.8-4.12,3.81-6.03,5.86-.3.33-.6.65-.91.98-2.88-.77-6.14-1.16-7.48-3.46,4.62-1.86,9.85-3.16,15.38-4.17Z"/>
    <path class="st0" d="M327.08,353.3c1.23-1.39,2.5-2.78,3.77-4.09-.67,1.86-2.08,3.32-3.48,3.96l-.3.13Z"/>
    <path class="st0" d="M323.32,346.72c.3.08.61.17.9.26-.5.2-1.04.37-1.6.52.23-.26.47-.52.7-.79Z"/>
  </g>
</svg>